<svg xmlns="http://www.w3.org/2000/svg" viewBox="0 0 600 200"><path d="M80.55,65.42a21.32,21.32,0,0,1,7.34-5.89,38.81,38.81,0,0,0,14.17-5.07c6.47-3.76,12.76-11.09,14.63-13.86l.11-.16c.82-1.2,1.46-2.15,1.38-3.49a2.05,2.05,0,0,0-1-1.94c-.71-.32-1.62,0-2.63.75-1.6,1.27-4.5,2.39-7.87,3.62a61,61,0,0,1-18.32,4,61.21,61.21,0,0,1-13.62-.72L55.07,39.42a32,32,0,0,0-6.94-.37c-13.28.83-22,10.64-23.67,19.91a22.69,22.69,0,0,0-.37,4.94,13.08,13.08,0,0,0,5.82,10.49,2,2,0,0,0,2.64-.82,2.16,2.16,0,0,0-.15-2.67,7,7,0,0,1-1.06-3.59A10.54,10.54,0,0,1,32,63c1.6-4.11,5.26-6.38,10.88-6.73a33.25,33.25,0,0,1,6.69.36l17.86,2.6,2,.31a22.14,22.14,0,0,0,3.26.3,3.06,3.06,0,0,1,.61.12l-.08.06A27,27,0,0,0,66,65.34c-6.31,6.29-11.92,16.51-17.68,32.19l-6.13,16.61c-5.16,13.58-13,19-18.46,18.39a5.55,5.55,0,0,1-5-5.09A2,2,0,0,0,18,125.9a1.67,1.67,0,0,0-1.38-.24,3.12,3.12,0,0,0-2.3,2.37A16.67,16.67,0,0,0,14,133.2c.23,3.64,1.67,8.48,7.28,10.85a17.51,17.51,0,0,0,6.34,1.08c.47,0,1,0,1.42,0,10-.62,22.3-7.64,27.37-21.9l8.48-23.83C70.59,83,76.46,70.31,80.55,65.42Z" style="fill:#fff"/><path d="M168.3,90.59h.31c4.09-.26,9.43-5.22,12.13-11.28a14,14,0,0,0,1.51-6.62A5.16,5.16,0,0,0,181,69.38a3.88,3.88,0,0,0-3.15-1.11c-4,.25-9.43,5.38-12.13,11.41a13.37,13.37,0,0,0-1.51,6.48C164.36,88.89,166,90.59,168.3,90.59Z" style="fill:#fff"/><path d="M246.62,116.4a4.3,4.3,0,0,0-3.42-1,1.78,1.78,0,0,0-1.23,1.11c-2.34,6.09-5.72,11.57-8.81,14.29-2.64,2.31-5.72,3-7.67,1.64-1.53-1-1.51-3.5.06-7.43L233,105.61l4-.25c3.4-.22,5.86-4.69,6.29-7.16a2.92,2.92,0,0,0-.43-2.4,1.4,1.4,0,0,0-1.14-.41l-5,.31,6.57-16.9a2.76,2.76,0,0,0,0-2.5,2.58,2.58,0,0,0-2.06-1.11c-3.45-.29-9.46,1.86-11.38,6.51L224,96.51l-1.13.07a6.15,6.15,0,0,0-4.59,2.33c-1.68,2-2,5-1.22,6.53a1.76,1.76,0,0,0,1.66,1.07l1.28-.08L216,116.63a1.74,1.74,0,0,0-.42.66c-1.27,3.41-2.82,6.35-3.95,7.47a6.52,6.52,0,0,1-6.15,1.19c-3.4-1-9.1-5.27-13.07-11.36l.29-.94.22-.08c8.69-3.72,18.76-13.54,26.27-25.62,6.75-10.56,13.5-27.09,12.79-34.88-.25-2.8-1.39-4.46-3.36-4.93C216.16,45,197.2,71.57,184.89,99.41l-3.06,6.84c-2.12.38-4.15.85-5,1.65-1.73,1.78-2.91,7.3-2.62,10.41a2.84,2.84,0,0,0,.39,1.18c-1.93,4.16-5.62,11-9.74,12.75a4.24,4.24,0,0,1-3.4.08,1.6,1.6,0,0,1-.94-.9c-.34-.74-.69-2.55.78-6.44l10.39-27.46a1.68,1.68,0,0,0-.07-1.53,1.09,1.09,0,0,0-1-.35l-9.62.61a1.86,1.86,0,0,0-1.61,1.25l-11,27.53c-2.49,4.06-5.76,7.66-9.53,7.07-1.12-.18-1.57-.82-1.67-2.34-.13-2,.64-5.28,2.16-9.2l7.2-18.6a2.31,2.31,0,0,0-1.39-3.12l-5.63-2.44a4.71,4.71,0,0,0-4.82.8l-.11.09a7.77,7.77,0,0,1-1.56,1.35c-.91.4-1.42,0-1.58-.14a2.59,2.59,0,0,1,0-1.18A6.2,6.2,0,0,0,129,93a6.57,6.57,0,0,0-5.63-1,9.08,9.08,0,0,0-6.73,9.84,5,5,0,0,0,.9,2.59c-.82,2.59-2.06,6-3.07,8.34-1.75,4.31-3.19,7.47-4.14,9.57-.61,1.34-1,2.18-1.13,2.61a2.27,2.27,0,0,0-.22.67c-2.72,4.37-5.89,7.44-9.22,6.51-.54-.12-1.26-.49-1.34-2.16-.12-2.71,1.66-7.37,3.39-11.87,1.64-4.27,3.33-8.69,3.52-11.73.28-3.55-.6-6.63-2.48-8.68a7.44,7.44,0,0,0-5.58-2.41H97.1a11.8,11.8,0,0,0-7.8,3.37l12.74-33c.9-2.34.95-4,.15-5-.43-.51-1.3-1-3-.72-3.43.63-8.86,4.34-10.32,7.8L60,142.67A1.38,1.38,0,0,0,60,144a1.21,1.21,0,0,0,1.06.47h.11l9.2-.42a1.81,1.81,0,0,0,1.91-1.48l8.35-21.31a69.64,69.64,0,0,1,4.83-9.78c2.59-4.29,4.83-6.28,6.5-5.76.12,0,.29.11.44.43.82,1.64-.11,6.27-1.43,9.62l-4.18,10.53A18.45,18.45,0,0,0,85.29,134c.22,4.83,3.23,8.52,7.67,9.4a15.37,15.37,0,0,0,3.47.2c2.72-.13,10.43-1.34,17.12-10.36a2.24,2.24,0,0,0,.33-.3,16.28,16.28,0,0,0,1.4-2.26,48,48,0,0,0,4.15-8.63.94.94,0,0,1,0-.16c.57-1.33,1.12-2.65,1.6-3.85,1.5-3.56,3.19-8.21,3.21-8.25a6.81,6.81,0,0,1,4.16-3.89c1.64-.63,1.9-.55,2.94.27.73.57.35,2-.16,3.51L124.93,126a16.57,16.57,0,0,0-1.24,7.19,10.62,10.62,0,0,0,3.36,7.47,12,12,0,0,0,8.19,2.7c.43,0,.87,0,1.31,0a19,19,0,0,0,10.77-4.69,9.41,9.41,0,0,0,2.4,3.15,10.85,10.85,0,0,0,7.2,2.43c.5,0,1,0,1.55-.08h0a24.14,24.14,0,0,0,12.8-5.71L160.52,168a4,4,0,0,0-.06,3.48,2.83,2.83,0,0,0,2.23,1.24,4.1,4.1,0,0,0,.5,0c3.34,0,9-2.85,10.55-6.86L189.67,125c2.16,3.31,7.31,10.56,14,11a21.18,21.18,0,0,0,6.79-.76c.6,5.48,4.79,9,10.73,9l1,0c12.28-.77,20.78-8.12,26-22.46A5,5,0,0,0,246.62,116.4Zm-50.47-12.24c1.58-4.14,3.47-8.48,5.88-13.52,10.12-21.15,18.5-31.26,20.6-31.26h.11c.08,0,.27.06.44.45,1.13,2.7-2.06,14.11-9.61,25.85C208.9,93,202.21,100,196.15,104.16Z" style="fill:#fff"/><path d="M343.21,89c-8.84,2.36-14.31,9-17.63,13.1-5.41.19-10.62,2.34-12.41,4.3-1.52,1.82-7.68,13.7-6.81,16.12.57,1.82,2.45,2.62,5.16,2.18a18,18,0,0,0,7-3,5.82,5.82,0,0,1-.25,6.42c-3,4.14-6.34,6.39-10.55,7.07a24.33,24.33,0,0,1-6.41,0,13.17,13.17,0,0,1-11.61-10.85,14.53,14.53,0,0,1,.3-6c2.71-10.48,12.34-20.21,21.48-21.69a14.83,14.83,0,0,1,4.81.1l4.92,1a3.78,3.78,0,0,0,3.24-.77,15.64,15.64,0,0,0,3-10.51,3.6,3.6,0,0,0-1-2.53c-.46-.33-4.69-2-6.48-2.73-8.47-3.46-12.58-7-13.31-11.56a9.45,9.45,0,0,1,.22-4c2.1-8.81,8.76-17.25,16.28-16.13,3.88.59,5.09,5.54,5.43,7.64a22.56,22.56,0,0,1-1,11.14,8,8,0,0,1-1.82,2.23c-.87.71-1.72,1.48-1.72,2.45-.18,1.13.43,2.18,1.81,3.17a6.33,6.33,0,0,0,5.31,1.47c4.12-.67,8.58-4.91,9.93-9.45A30.08,30.08,0,0,0,342,54.9c-1.48-9.16-7.29-15.52-15.54-17a26.05,26.05,0,0,0-8.36,0A32.16,32.16,0,0,0,293.1,59a26.22,26.22,0,0,0-1.64,13.07c1.35,8.36,8.08,12.87,14.49,15.81-.5,0-1,.11-1.56.2-11.3,1.83-25.91,10.85-31.29,26.33a27.54,27.54,0,0,0-1.34,13.27c2.06,12.71,13.88,19.81,24.66,21.2a29.92,29.92,0,0,0,4.46.33,33.3,33.3,0,0,0,5.32-.44c14.69-2.38,24.71-15.1,27.81-25.92,1.13-4,1.71-9.11.56-12,.3-.34.59-.7.88-1.06,2.21-2.69,4.49-5.48,9.89-6.36a9.77,9.77,0,0,1,7.48,1.47,5.4,5.4,0,0,1,2.21,3.48.86.86,0,0,0,.64.75c.48.12,1-.2,1.48-.89a33.43,33.43,0,0,0,5.52-9.09c.94-2.28,1.18-3.85.75-4.78C361.76,90.34,350.83,86.83,343.21,89Z" style="fill:#fff"/><path d="M440.87,119.21c-.43-6.86-4.58-13.62-14.31-23.31l-5-5c-9.36-9.48-14.09-16.94-14.46-22.78a11,11,0,0,1,.83-4.88c2.19-5,7.11-6,9.85-6.16a18.67,18.67,0,0,1,6.49.83c5.65,1.71,11.38,7,10.91,12.18a5.64,5.64,0,0,1-3.06,4.71,2,2,0,0,1-2.27-.45l-.17-.26-.32,0a.79.79,0,0,0-.72.45l-.12.07-.08.12a3.93,3.93,0,0,0-.69,2.25c0,1.85.65,4.38,4.1,5.93a8.32,8.32,0,0,0,3.67.59C441,83.1,447.21,77.34,449,70.86a17.93,17.93,0,0,0,.63-5.84c-.55-8.77-7.66-18.5-22.31-20.45a40,40,0,0,0-7.62-.29C408.51,45,399.5,51.05,395,60.92a24.15,24.15,0,0,0-2,11.87c.63,9.91,6.16,20.66,15.19,29.51l5.91,5.73c6.58,6.59,10.06,12.33,10.36,17a9.31,9.31,0,0,1-.85,4.62c-1.77,3.79-7,6.5-13.43,6.9a24.66,24.66,0,0,1-9.64-1.26c-7-2.4-11.65-7.77-11.22-13.06a8.35,8.35,0,0,1,3.4-6.06,4.74,4.74,0,0,1,3.84-1l.09,0,.47,0,.16-.2c.35-.42.3-1.24-.13-2.23a7.75,7.75,0,0,0-7.46-4.66c-7.07,0-14.78,5.49-15.82,15.88-1.21,11.11,8.77,21.39,23.23,23.93a44.19,44.19,0,0,0,7.38.61c.91,0,1.81,0,2.7-.08,14.47-.91,27.6-9,31.92-19.67A21.26,21.26,0,0,0,440.87,119.21Z" style="fill:#fff"/><path d="M507.56,90.11h.33c4.37-.28,10.07-5.57,13-12a15,15,0,0,0,1.6-7.07,5.44,5.44,0,0,0-1.35-3.52,4.13,4.13,0,0,0-3.33-1.18c-4.25.27-10.06,5.75-12.94,12.2a14.38,14.38,0,0,0-1.61,6.91,5.44,5.44,0,0,0,1.33,3.46A4,4,0,0,0,507.56,90.11Z" style="fill:#fff"/><path d="M584.5,117.75a4.22,4.22,0,0,0-3.35-1.16,1.76,1.76,0,0,0-1.29,1c-2.68,5.94-6.35,11.22-9.6,13.76-2.77,2.17-5.88,2.65-7.75,1.22-1.47-1.1-1.32-3.58.48-7.42l8.54-19,4,0c3.42,0,6.13-4.34,6.69-6.79A2.84,2.84,0,0,0,582,97a1.42,1.42,0,0,0-1.12-.49l-5,0L583.35,80a2.74,2.74,0,0,0,.13-2.49,2.63,2.63,0,0,0-2-1.23c-3.42-.48-9.56,1.32-11.73,5.87l-6.71,14.44h-1.14a6.11,6.11,0,0,0-4.7,2.08c-1.8,1.9-2.27,4.87-1.59,6.44a1.74,1.74,0,0,0,1.6,1.16h1.27L550,124.63a8.24,8.24,0,0,1-1,1.22,6.93,6.93,0,0,1-6.29,1c-3.4-1-9-5.35-12.87-11.35l.32-.88.23-.07c8.9-3.41,19.38-12.7,27.37-24.25,7.14-10.09,14.48-26,14-33.58-.18-2.75-1.27-4.39-3.26-4.89-12.45-3.32-32.43,22-45.75,48.73l-3.3,6.57c-2.15.32-4.22.73-5.14,1.48-1.8,1.69-3.17,7-3,10.07a3.92,3.92,0,0,0,1.83,2.75c-2.06,4.09-5.26,9.31-8.79,10.8a4.23,4.23,0,0,1-3.41.08,1.58,1.58,0,0,1-.93-.9c-.34-.73-.69-2.56.78-6.44l10.38-27.46A1.65,1.65,0,0,0,511.1,96a1.06,1.06,0,0,0-1-.34l-9.61.6a1.88,1.88,0,0,0-1.62,1.25L487.17,127a16.91,16.91,0,0,0-.64,1.76c-2.4,2.77-5,4.41-7.72,3.66-.62-.15-1.32-.53-1.38-2.18-.08-2.71,1.86-7.35,3.74-11.82,1.79-4.25,3.64-8.64,3.89-11.68a11.08,11.08,0,0,0-2.32-8.58,7.85,7.85,0,0,0-5.9-2.63,12.72,12.72,0,0,0-8.41,3.31l13.91-32.85c1-2.28,1.06-3.94.28-4.92-.42-.54-1.32-1.12-3.17-.81-3.57.57-9.31,4.21-10.9,7.65l-31.46,74.48a1.39,1.39,0,0,0,0,1.37,1.25,1.25,0,0,0,1.12.49h.08l9.63-.3a1.86,1.86,0,0,0,2-1.45L459,121.26a67.63,67.63,0,0,1,5.23-9.71c2.78-4.27,5.17-6.25,6.93-5.68.13,0,.32.11.49.46.78,1.67-.26,6.26-1.69,9.56l-4.54,10.48a17.83,17.83,0,0,0-1.69,7.62,9.68,9.68,0,0,0,7.84,9.51,17.39,17.39,0,0,0,3.63.24,22.47,22.47,0,0,0,12.06-4.38,9.41,9.41,0,0,0,2,2.41,10.89,10.89,0,0,0,7.2,2.42c.51,0,1,0,1.55-.08a20,20,0,0,0,3.43-.67,24,24,0,0,0,5-2L496,166.61a3.78,3.78,0,0,0-.17,3.37,2.84,2.84,0,0,0,2.22,1.29c.21,0,.44,0,.67,0,3.38,0,9.09-2.61,10.72-6.41l17.36-39.3c2.09,3.26,7.08,10.46,13.83,11a21.91,21.91,0,0,0,6.89-.58,9.43,9.43,0,0,0,2.95,5.36,11.66,11.66,0,0,0,8,2.74h.12c12.3-.08,21.2-6.94,27.21-21A5,5,0,0,0,584.5,117.75ZM540.31,92.52h0C551.17,72.26,560,62.64,562.12,62.64a.27.27,0,0,1,.13,0c.08,0,.28.07.43.47,1,2.67-2.57,13.67-10.52,24.82A68,68,0,0,1,534,105.47C535.69,101.49,537.74,97.33,540.31,92.52Z" style="fill:#fff"/></svg>